<?xml version="1.0" encoding="utf-8"?>
<!-- Generator: Adobe Illustrator 21.0.0, SVG Export Plug-In . SVG Version: 6.00 Build 0)  -->
<svg version="1.1" id="レイヤー_1" xmlns="http://www.w3.org/2000/svg" xmlns:xlink="http://www.w3.org/1999/xlink" x="0px"
	 y="0px" viewBox="0 0 225 140" style="enable-background:new 0 0 225 140;" xml:space="preserve">
<style>
	.st0{fill:#FFFFFF;stroke:#000000;stroke-miterlimit:10;}
	.st1{fill:#333333;stroke:#666666;stroke-miterlimit:10;}
	.st2{fill:#666666;stroke:#000000;stroke-miterlimit:10;}
	.st3{fill:#CBCBCB;stroke:#000000;stroke-miterlimit:10;}
	.st4{fill:none;stroke:#000000;stroke-miterlimit:10;}
	.st5{stroke:#000000;stroke-miterlimit:10;}
	.st6{stroke:#000000;stroke-width:0.5;stroke-miterlimit:10;}
	.st7{fill:#4D4D4D;stroke:#666666;stroke-miterlimit:10;}
	.st8{fill:#CBCBCB;stroke:#000000;stroke-width:0.5;stroke-miterlimit:10;}
	.st9{fill:none;stroke:#000000;stroke-width:0.5;stroke-miterlimit:10;}
	.st10{fill:#333333;stroke:#000000;stroke-miterlimit:10;}
	.st11{fill:#1A1A1A;stroke:#000000;stroke-width:0.5;stroke-miterlimit:10;}
	.st12{fill:#666666;stroke:#666666;stroke-width:0.75;stroke-miterlimit:10;}
	.st13{fill:#333333;}
	.st14{fill:url(#SVGID_1_);stroke:#000000;stroke-miterlimit:10;}
	.st15{fill:#B3B3B3;stroke:#000000;stroke-miterlimit:10;}
</style>
<g>
	<path class="st0" d="M99.2,137.4c-49.6,0-95.4,0-95.4,0V2.7h122.1v11h95.4v123.6C221.3,137.2,157.7,137.4,99.2,137.4z"/>
	<circle class="st1" cx="178.1" cy="96.4" r="23.3"/>
	<rect x="176.7" y="24.9" class="st2" width="37.6" height="12.5"/>
	<rect x="171" y="2.6" class="st3" width="25.5" height="11"/>
	<line class="st4" x1="191.4" y1="2.7" x2="191.4" y2="13.6"/>
	<line class="st4" x1="186.3" y1="2.7" x2="186.3" y2="13.6"/>
	<line class="st4" x1="181.3" y1="2.7" x2="181.3" y2="13.6"/>
	<line class="st4" x1="176.2" y1="2.7" x2="176.2" y2="13.6"/>
	<rect x="134" y="4.8" class="st3" width="30.9" height="8.8"/>
	<line class="st4" x1="154.8" y1="4.9" x2="154.8" y2="13.6"/>
	<line class="st4" x1="149.8" y1="4.9" x2="149.8" y2="13.6"/>
	<line class="st4" x1="159.9" y1="4.9" x2="159.9" y2="13.6"/>
	<line class="st4" x1="144.7" y1="4.9" x2="144.7" y2="13.6"/>
	<line class="st4" x1="139.6" y1="4.9" x2="139.6" y2="13.6"/>
	<path class="st5" d="M44.6,7.2H12.7c-1.5,0-2.9,1.3-2.9,2.9v22.4c0,1.5,1.3,2.9,2.9,2.9h31.9c1.5,0,2.9-1.3,2.9-2.9V10.1
		C47.4,8.6,46.1,7.2,44.6,7.2z M41.7,31.2H15.6V11.6h26.1V31.2z"/>
	<rect x="3.8" y="43" class="st6" width="217.5" height="89.4"/>
	<circle class="st7" cx="156.2" cy="52.4" r="5.6"/>
	<rect x="180.3" y="27.7" class="st8" width="30.9" height="6.7"/>
	<line class="st9" x1="206.1" y1="27.8" x2="206.1" y2="34.5"/>
	<line class="st9" x1="201" y1="27.8" x2="201" y2="34.5"/>
	<line class="st9" x1="196" y1="27.8" x2="196" y2="34.5"/>
	<line class="st9" x1="190.9" y1="27.8" x2="190.9" y2="34.5"/>
	<line class="st9" x1="185.8" y1="27.8" x2="185.8" y2="34.5"/>
	<polygon class="st10" points="160.2,51.1 158.9,51.1 158.9,49.5 157.5,49.5 157.5,48.2 154.8,48.2 154.8,49.5 153.3,49.5
		153.3,51.1 152,51.1 152,53.8 153.3,53.8 153.3,55.1 154.8,55.1 154.8,56.4 157.5,56.4 157.5,55.1 158.9,55.1 158.9,53.8
		160.2,53.8 	"/>
	<rect x="153.3" y="49.5" class="st4" width="5.6" height="5.6"/>
	<rect x="152" y="51.1" class="st4" width="8.3" height="2.7"/>
	<rect x="141.7" y="132.3" class="st11" width="79.6" height="4.9"/>
	<rect x="154.8" y="48.2" class="st4" width="2.7" height="8.3"/>
	<line class="st4" x1="152" y1="52.4" x2="160.2" y2="52.4"/>
	<line class="st4" x1="156.2" y1="48.2" x2="156.2" y2="56.4"/>
	<g>
		<circle class="st12" cx="178.4" cy="96.4" r="7.4"/>
		<path class="st12" d="M178.4,108.2c-2.2,0-4.2-0.5-5.9-1.5l-6.2,6.2c3.4,2.5,7.6,3.9,12.1,3.9c4.6,0,8.8-1.5,12.1-3.9l-6.2-6.2
			C182.5,107.7,180.4,108.2,178.4,108.2z"/>
		<path class="st12" d="M190.2,96.4c0,2.2-0.5,4.2-1.5,5.9l6.2,6.2c2.5-3.4,3.9-7.6,3.9-12.1s-1.5-8.8-3.9-12.1l-6.2,6.2
			C189.6,92.2,190.2,94.2,190.2,96.4z"/>
		<path class="st12" d="M178.4,84.6c2.2,0,4.2,0.5,5.9,1.5l6.2-6.2c-3.4-2.5-7.6-3.9-12.1-3.9c-4.6,0-8.8,1.5-12.1,3.9l6.2,6.2
			C174.2,85.1,176.2,84.6,178.4,84.6z"/>
		<path class="st12" d="M166.5,96.4c0-2.2,0.5-4.2,1.5-5.9l-6.2-6.2c-2.5,3.4-3.9,7.6-3.9,12.1s1.5,8.8,3.9,12.1l6.2-6.2
			C167.1,100.5,166.5,98.6,166.5,96.4z"/>
	</g>
	<circle class="st12" cx="156.2" cy="70.4" r="5.4"/>
	<g>
		<rect x="6.3" y="45.5" width="132.9" height="89.4"/>
		<path class="st13" d="M136.6,48v84.3H8.8V48L136.6,48 M141.7,43H3.8v94.4h137.9V43L141.7,43z"/>
	</g>
	<circle class="st12" cx="200.5" cy="70.4" r="5.4"/>
	<rect x="74.9" y="2.7" class="st10" width="25.6" height="4.2"/>
	<circle class="st12" cx="156.2" cy="122.4" r="5.4"/>
	<circle class="st12" cx="200.5" cy="122.4" r="5.4"/>

		<linearGradient id="SVGID_1_" gradientUnits="userSpaceOnUse" x1="28.0944" y1="86.8569" x2="121.4262" y2="13.9381" gradientTransform="matrix(1 0 0 -1 0 142)">
		<stop  offset="0" style="stop-color:#FFFFFF;stop-opacity:0.6"/>
		<stop  offset="7.613509e-02" style="stop-color:#F7F7F7;stop-opacity:0.5848"/>
		<stop  offset="0.2589" style="stop-color:#EAEAEA;stop-opacity:0.5482"/>
		<stop  offset="0.498" style="stop-color:#E3E3E3;stop-opacity:0.5004"/>
		<stop  offset="1" style="stop-color:#E0E0E0;stop-opacity:0.4"/>
	</linearGradient>
	<rect x="14.7" y="51.4" class="st14" width="116" height="77.2"/>
	<rect x="15.6" y="11.6" class="st15" width="26.1" height="19.6"/>
</g>
</svg>
