<?xml version="1.0" encoding="utf-8"?>
<!-- Generator: Adobe Illustrator 19.2.1, SVG Export Plug-In . SVG Version: 6.00 Build 0)  -->
<svg version="1.1" id="レイヤー_1" xmlns="http://www.w3.org/2000/svg" xmlns:xlink="http://www.w3.org/1999/xlink" x="0px"
	 y="0px" viewBox="0 0 1836.8 1379.2" style="enable-background:new 0 0 1836.8 1379.2;" xml:space="preserve">
<style>
	.st0{fill-rule:evenodd;clip-rule:evenodd;stroke:#000000;stroke-miterlimit:10;}
	.st1{fill-rule:evenodd;clip-rule:evenodd;fill:none;}
</style>
<path class="st0" d="M316,362.4c12.6,0.7,29.5-1.9,42,1.2c12.3,3.6,24.5,7.2,36.8,10.8c3.9,3.2,7.7,6.4,11.6,9.6
	c2.5,0.4,5.1,0.8,7.6,1.2c5.5,3.4,11,9,16.8,12.4c24.7,14.6,48.2,28.7,65.2,50.8c4.7,6.1,7.3,13,11.6,19.6
	c4.1,6.5,8.3,13.1,12.4,19.6c3,8.3,3.8,14.6,6.4,23.6c1.5,3.5,2.9,6.9,4.4,10.4c-0.1,3.6-0.3,7.2-0.4,10.8c0.7,4.1,1.3,8.3,2,12.4
	c2.3,11.8-9.5,28.2-2.8,39.2c29.4,2.3,55.4-12,81.6,3.6c0.9,5.7,1.9,11.5,2.8,17.2c-3.4,4.6-17.1,8.8-13.6,16.8
	c7.1,2.3,15.1,5,20.4-1.6c1.9-2.3,3.4-5.3,6.4-6.4c10.4-3.9,27.6-3.3,38-6c7.7-0.4,15.5-0.8,23.2-1.2c14.2-2.6,30.5-5.4,45.6-8
	c4.8,0.3,9.6,0.5,14.4,0.8c12.8-2.1,25.4-3.9,37.2-6c3.2-0.1,6.4-0.3,9.6-0.4c2-1.7,4-3.5,6-5.2c20.1-2.5,40.3-5.1,60.4-7.6
	c7.6-1.5,20.8-5.3,28.8-3.2c0.7,9.2-6.4,15.3-4.4,26.4c0.8,0.1,1.6,0.3,2.4,0.4c0.9-0.3,1.9-0.5,2.8-0.8c2.7-10.3,4.8-12.6,14.4-16
	c5.7,4.4,21.4,1.7,29.2-0.4c23.6-6.3,51.3-5.6,76.4-10c9.7-1.7,21.9-0.6,29.2-4.8c6.3-19.4,19-15.9,38.8-20.8
	c13.1-3.2,26.1-6.4,39.2-9.6c3.5-1.2,6.2-4.3,9.2-5.6c8.6-3.8,16.9-5.1,27.2-7.2c7.7-1.6,35.6-5.4,42-1.2
	c8.5,5.6,11.2,21.1,14.8,31.6c10.3,29.8,14.7,67.3,15.6,105.2c0.4,17.4,0.7,41.2-7.2,51.2c-3.6,4.5-45.8,12.3-56.4,10.4
	c-7.7-1.4-14.7-3.5-23.2-3.6c-4.4,5.9-10.1,14.5-16.4,18.4c-9.1,4.1-18.1,8.3-27.2,12.4c-6.1,3.8-8.3,11.2-15.6,14
	c-7.1,0.7-14.1,1.3-21.2,2c-2.9,1.7-5.9,3.5-8.8,5.2c-10,0.8-20,1.6-30,2.4c-3.6-0.1-7.2-0.3-10.8-0.4c-4.5,1.5-9.1,2.9-13.6,4.4
	c-2.8,0.4-5.6,0.8-8.4,1.2c-2.3,2.5-4.5,5.1-6.8,7.6c-2.8,2.8-6.7,4.9-8.4,8.8c-8.6,19.9-11.9,45.1-16.8,68.8
	c-2.5,11.8-1.5,22.4-4.4,33.2c-4.4,16.5-8.6,31.5-14.8,46c-2.3,4.1-4.5,8.3-6.8,12.4c-2.2,7.1,3.9,21.4,5.2,27.2
	c2.5,21.5,5.1,42.9,7.6,64.4c3.6,102.1-15.5,226.8-130.4,205.6c-10.9-2-19.9-4.8-29.6-8.4c-21.1-7.7-40.3-14.3-56.8-26.4
	c-21.3-15.5-35.3-36.1-51.2-57.2c-2.8-2.9-5.6-5.9-8.4-8.8c-6.3-13.7-12.4-27.1-17.6-40.4c-2.2-5.6-2-13.9-6.4-17.2
	c-1.3-0.3-1.3-0.1-2.4,0.4c0,0.1,0,0.3,0,0.4c1.3,3.9,2.7,7.7,4,11.6c4.1,12.9,8.5,25.6,13.6,37.2c9.8,22.5,14.3,48.7,24,72
	c1.5,3.5,5.1,5.2,6.4,8.4c0.4,2.7,0.8,5.3,1.2,8c1.2,1.3,2.4,2.7,3.6,4c1.1,4.4,2.1,8.8,3.2,13.2c1.6,2.4,3.2,4.8,4.8,7.2
	c6.2,13.7,8.8,27.6,14.4,42c3.3,8.4,8,18.6,10.4,27.2c1,3.5-0.7,6.6,0.4,10c4.6,13.7,8.7,27.2,14,40.4c-128.7,0-257.3,0-386,0
	c-34.1,0-68.3,0-102.4,0c-9.5,0-33.8,2.2-39.6-1.6c-3.2-4.8-6.4-9.6-9.6-14.4c-8.7-13.9-16.5-27.7-26.4-40.4
	c-4.6-5.9-14.8-5.9-19.2-12.4c-1.3-3.6-2.7-7.2-4-10.8c-5.8-13.6-11.3-29-18.8-41.2c-8.9-14.6-18.7-29.4-27.6-44.4
	c-5.3-9.9-10.7-19.7-16-29.6c-5.2-4.1-10.4-8.3-15.6-12.4c-6.9-5.5-12-15.8-16-24c-5.2-10.7-4.5-23.8-8-36.4
	c-3.9-14.1-7.8-29.4-12-44.8c-9-32.9-19.5-93.6-8.4-130.8c2.3-4.3,4.5-8.5,6.8-12.8c2.9-7.1,2.8-14.8,6.4-20.8
	c5.5-9.3,30.2-25.1,40.8-29.6c5.3-2.3,12.8-1.6,17.2-4.8c3.2-4.1,6.4-8.3,9.6-12.4c4.9-3.5,10.8-3.3,17.2-5.6
	c10.3-5.5,20.5-10.9,30.8-16.4c4-2,8.6-2.1,13.2-4c14.2-5.8,5.1-14.6,29.2-12.8c6.9-8.4,24.6-47.5,20.8-64.8
	c-1-4.6-5.6-5.7-6.8-10.4c-2-7.8-0.4-16.5-3.2-23.2c-2.9-3.9-5.9-7.7-8.8-11.6c-1.5-3.3-2.9-6.7-4.4-10c-2.3-1.5-4.5-2.9-6.8-4.4
	c-1.7-2.5-0.1-5.5-1.6-8.8c-2.1-2-4.3-4-6.4-6c-4.7-6.7-1.1-6.1-9.2-10.4c0.1-9.3-4.4-14.5-6-21.2c0-2.7,0-5.3,0-8
	c-1.6-4-3.2-8-4.8-12c-0.9-4.5-1.9-9.1-2.8-13.6c-1-1.6-3.4-1.9-4-4c0.1-2.3,0.3-4.5,0.4-6.8c-1.9-10.4-4.3-25.2-6.4-36.8
	c-1.5-8.2-0.5-18.2,0.8-24.4c0-4.3,0-8.5,0-12.8c2-5.3,4-10.7,6-16c2.1-8.5,0.7-12.9,2.8-21.2c2.7-5.5,5.3-10.9,8-16.4
	c0.3-2.5,0.5-5.1,0.8-7.6c2.4-5.3,4.8-10.7,7.2-16c12.2-21.2,32.1-41.1,52.8-54c4.2-2.6,8.3-2.8,13.6-4.8
	c7.7-3.7,15.5-7.5,23.2-11.2c5.9-4.5,11.7-9.1,17.6-13.6c3.1-1.3,5.3,0.3,8.4,0C300.5,366.2,310,365.3,316,362.4z"/>
<path class="st1" d="M908,742.4c-10.9,1.2-21.9,2.4-32.8,3.6c-16.4,2-32.8,4-49.2,6c-6.4,1-9.5-2.1-16.4-2
	c-12.1,1.3-24.3,2.7-36.4,4c0,0.9,0,1.9,0,2.8c3.3,7.8,22.9,25.7,29.6,32.4c20.1,20.8,40.3,41.6,60.4,62.4c7-3.3,8.9-18.7,11.6-26.4
	c2.8-7.9,5.6-15.7,8.4-23.6c3-9.2,3.5-18,8-25.2c5.6-9,20.8-22.3,22.4-33.2C912.3,742.4,910.4,742.3,908,742.4z"/>
<path class="st1" d="M682,766.4c-5.6,2.1-13.5,0.7-18.4,3.2c0.1,2.8,0,5.5-0.8,7.2c-7.5,1.7-14.9,3.5-22.4,5.2
	c-3.3,1.3-4.4,4.6-7.2,6c-2.7,0.5-5.3,1.1-8,1.6c-1.7,6.4,2.1,12.9,1.2,19.2c-0.8,5.3-6,5.6-7.2,10c-3.2,11.9,19.2,26.4,24,32.8
	c3.7,5,4.6,10.9,7.2,17.2c2.2,5.3,6.1,10.1,9.6,14.4c5.5,6.9,15,10.3,23.6,14.4c20.5,9.7,40.2,23.5,60.8,34c3.3,1.7,5.4,4.9,8.4,6.4
	c3.2,1.6,8.7,3.6,11.6,4.4c2,0,4,0,6,0c2.1,1.9,4.3,3.7,6.4,5.6c3.2,1.1,6.4,2.1,9.6,3.2c3.8,2.1,10.4,10.2,16,8.4
	c11.5-5.5,22-24.3,27.2-36.8c1.4-3.5,7-8.9,5.6-13.2c-3-6.3-10.3-10.6-15.6-14.8c-8.1-6.4-15.1-14.5-23.2-21.2
	c-6.8-7.1-13.6-14.1-20.4-21.2c-20.6-16.3-37-37.1-57.2-54C709.9,791,695.3,766.9,682,766.4z"/>
<path class="st1" d="M904.4,1006.4c-5,8.3-9.5,19.2-12.4,29.2c-1.1,5.7-2.1,11.5-3.2,17.2c-4.1,11.2-11.1,21-15.6,31.6
	c-5.7,13.4-9.5,25.2-24,29.6c-12.1,3.6-32.5-3.3-42.4-6.4c-3.7-1.2-9.7-4.9-14.4-3.2c-11.3,5.4-18.4,33.1-29.2,40.4
	c-1.6,1.1-12.5,6.3-13.6,6.4c-5.7,0.6-8.9-5.3-13.6-2c-3.1,1.5-5.9,5.9-6,10.4c5.7,16.7,15.7,32.1,25.6,45.2
	c1.7,1.5,3.5,2.9,5.2,4.4c23,32.8,58.3,48.7,102.4,24.4c8.8-4.9,20.3-10,26.4-17.6c5.2-6.6,10.6-15.2,14-23.2
	c0.9-3.5,1.9-6.9,2.8-10.4c1.5-1.3,2.9-2.7,4.4-4c6.6-11.6,10.5-29,13.6-42.8c0.5-5.2,1.1-10.4,1.6-15.6c2.2-9.5,8.6-36.1,6.4-47.6
	c-5-25.8-16.5-45.3-25.6-66C906,1006.4,905.2,1006.4,904.4,1006.4z"/>
<path class="st0" d="M1676.4,297.2c-12,1.4-14.4,1.9-22.4-4c-7.6,0.4-12.9,7.9-19.6,10.4c-13.2,3.3-26.4,6.7-39.6,10
	c-4.5,1.2-17.6,0-18.4,4.4c3.6,10.8,3.9,13.9,10,21.6c-0.3,0.4-0.5,0.8-0.8,1.2c-13.6,1.6-28.6,11.7-39.2,3.6
	c-5.1,0.7-18,6.4-21.6,4c4-5.7,4.9-10,4.8-20c-26.1-0.1-44.9,8.2-66.4,12c-0.7,1.3-1.3,2.7-2,4c-0.1,0-0.3,0-0.4,0
	c0-0.9,0-1.9,0-2.8c-4.5,0.5-9.8,3.2-13.2,3.6c-3.9,0.4-14.6,0-19.6-0.8c-4.9,0-9.9,0-14.8,0c-14.7-1.3-29.3-2.7-44-4
	c-21.2-3.1-43-2.7-64-7.2c-0.5-4-1.1-8-1.6-12c-36-1.2-72-2.4-108-3.6c0-0.1,0-0.3,0-0.4c10-7.7,34.3-2.1,50-3.6
	c22.1,0,44.3,0,66.4,0c6.8-3.1,13.6-6.1,20.4-9.2c-1.6-4-3.2-8-4.8-12c-5.4,2.1-14.3,5.9-21.6,4c0-0.1,0-0.3,0-0.4
	c0.1-0.3,0.3-0.5,0.4-0.8c1.7-2.1,3.5-4.3,5.2-6.4c-0.1-0.3-0.3-0.5-0.4-0.8c-6.2,0.1-36.6-2.3-40-5.2c0.8-0.7,0.3,0,0.8-1.2
	c-3.7-0.4-4.9,0.2-7.6,1.2c0.1-0.5,0.3-1.1,0.4-1.6c-20.9-2.4-41.9-4.8-62.8-7.2c-8.3-1.1-16.5-2.1-24.8-3.2c0-0.1,0-0.3,0-0.4
	c20.3-2.7,43.7-2.2,66,1.6c11.5,0.4,22.9,0.8,34.4,1.2c7.5,1.2,38.7,3.2,43.2,1.2c-0.7-1.9-1.3-3.7-2-5.6c0.5-0.4,1.1-0.8,1.6-1.2
	c-0.9-0.1-1.9-0.3-2.8-0.4c-7.6-19.6-15.2-39.2-22.8-58.8c-2.3-5.7-9.2-16.3-8.4-22.4c6-1.6,12.1-5.3,19.6-4
	c20.9,23.3,41.9,46.7,62.8,70c3.8,4.7,17.6,23.3,22.4,24.8c12.2,3.7,33.7-6,44.4-8.4c0.1-1.1,0.3-2.1,0.4-3.2c0.1,0,0.3,0,0.4,0
	c0.4,1,0.5,1.4,1.2,2c4.7-0.9,9.3-1.9,14-2.8c0-0.4,0-0.8,0-1.2c-0.4-0.9-0.8-1.9-1.2-2.8c0.5,0,1.1,0,1.6,0
	c0.5,2.3,0.5,2.9,3.2,3.2c51.7-12.9,103.5-25.9,155.2-38.8c-0.3-1.2-0.5-2.4-0.8-3.6c0.9,1.2,1.9,2.4,2.8,3.6
	c6.5-0.7,13-3.4,18.4-5.2c5.8-2,10.6-1.3,16-2.8c24.1-6.7,48.2-12.1,74.4-16c13.6-2,37.5,2.5,46,6.8c4.4,2.2,7.4,6.7,10.8,10
	c3.8,3.8,11,6.9,8.8,16.4c-1.5,6.5-6.6,10.3-9.6,15.2c1.2,2.2,1.6,4.8,1.6,8.4c-3.4,1.6-4.4,5.3-7.2,7.2c-2,1.3-5,1.8-6.8,2.8
	c-7.9-3.2-10,3.6-16.8,4.8c-3.4,0.6-6.3-1.4-9.6-0.8c0,0.1,0,0.3,0,0.4c2.3,4.7,6,7.6,7.2,14c4.3,22.2-18.5,26.1-34,29.6
	c-4.1,0.9-9.8,3.2-15.2,2c-10.3-2.2-14.6-8.9-22.4-13.6C1675.3,301.6,1676.3,301.1,1676.4,297.2z"/>
</svg>
