<svg id="レイヤー_1" data-name="レイヤー 1" xmlns="http://www.w3.org/2000/svg" viewBox="0 0 1119.4 940.46"><defs><style>.cls-1{fill-rule:evenodd;}</style></defs><title>walk</title><path class="cls-1" d="M676.95,179.68c-21.61,87.24-165.15,92.78-330.39,269.7s227.82,425,227.82,425h10s-393.06-248.09-227.82-425,308.78-182.47,330.39-269.7c9.76-39.4-8.12-95.2-41.93-144.33L635,35.27C668.81,84.41,686.72,140.26,676.95,179.68Z" transform="translate(-306 -35.27)"/><path class="cls-1" d="M1412.75,179.68c-21.61,87.24-165.15,92.78-330.39,269.7s227.82,425,227.82,425h10s-393.06-248.09-227.82-425,308.78-182.47,330.39-269.7c9.75-39.35-8.07-95.07-41.8-144.15l-10.08-.12C1404.65,84.52,1422.51,140.29,1412.75,179.68Z" transform="translate(-306 -35.27)"/><path class="cls-1" d="M896.54,384.8l14,1.2,3.6,4,8.8,1.6c4.75,1.1,8.89,7.63,11.2,11.2,12.89,19.89-5.42,40.58-10.4,56.4-1.51,4.8-6.16,13.13-4,18.4,11.07,0.3,12.86,2.72,17.2,10,4.31,0.22,6.91,2.09,10,3.2l8,0.8c20.11,8.33,18.18,35,24.8,56,9.9,31.45,24.21,60.79,29.6,98a21.61,21.61,0,0,0-5.6,2c0.16,8.17,2.64,12.25,4,18,3.38,14.29,1,19.18,8,30,2.8,4.36-1.4,8.61-.4,12,0.5,1.7,3.08,3,2.4,6.4-0.95,4.81-5.7,10.84-8.4,14.4h-6.8c-1.94-1.77-4.67-3.2-6.4-5.2,0.78-1.81,1-1.74,2.4-2.8l-8.8-18.8c-2.24-9.84,3.83-16,2.4-24.8-1.69-10.43-6.14-19.45-10.8-27.2l-6.8-1.6c-0.25-9.19-4.74-13.69-7.2-20.4l-14.4-45.2h-0.4v0.8c-6.2,10.25,4.42,34.55,7.2,45.6,4.77,19-2.25,35-4.8,50-2.12,12.45,3.05,21.89,1.2,31.6l-7.6-2c-0.82.83-1.35,0.9-2,2-1.64,1.86-1.24,3.29-.8,5.6-3.91,1.19-6.76,9.22-7.2,13.6-1,10.34-11.11,22.51-6.8,37.6a10.53,10.53,0,0,0-4.4,6.8c3.24,7.61.26,26.45-1.2,37.6-0.36,2.72,1.35,6.77.4,12-1.77,9.77-6.25,20.57-8.8,30l0.8,6.4c-0.82,2.18-2.69,7-3.2,8.8l-0.8,10c-0.93,1.94-3.23,2.86-4.4,5.2,4.06,6,5.74,15.12,2,21.6,1.8,3,4.55,8.24,4,13.2l-0.8,5.6,4,6.8c0.57,2.14-.55,4.62-0.8,5.6-2.72,10.65-1.17,18.4,3.2,24.8-4.34,13.15-29.69,19.3-42.4,8.8a19.11,19.11,0,0,1,.4-9.6h0.4l0.4,2,1.2-.8c2-6.19,7.51-15.69,4.4-25.2-0.85-2.59-3.2-5.14-4-7.2-2.27-5.82.32-13.25-1.2-17.6l-3.6-1.2c0.57-3.77-6.94-16.11-8.4-22.8-1.21-5.52,1-13.77-.8-18.4a226.28,226.28,0,0,1-11.6-43.6c-0.69-4.76,1.69-7,.8-11.6l-6.8-4.8,1.2-1.6c0.84-.82.65-0.71,0.8-2.4l-2.4-3.2c1-2,1.51-3.8.4-6a9.87,9.87,0,0,0,4-2.4l-4.4-31.6-2.8-2c-0.53-1.35,1.88-6.41-.4-11.2l-2.4-.4c0.29-5.12,2-16.69,0-24l-3.6-1.2-0.4-2.8c2.79-1.52,2.15-8.73,1.2-13.2-2.7-12.78-2-36-8-46.8l-2.4-.4-0.4,1.2c-0.91,3,1.35,7-2,8.4l-3.2-4,0.8-22c1.53-4.37,5.71-7.69,7.2-11.6l0.8-5.2,6.4-8.4-0.8-13.6,4.4-13.6c1.46-7-2.22-14.05-3.2-19.6l-0.8.4c-5.4,19.13-5.22,43.4-9.6,62.4-9.07,1.44-8.72,20.56-6.8,29.2,3.75,16.9,20,26.23,4,44.4l-1.6-1.6c-2.94,2.51-12.33,5.47-17.2,2-0.86-5.47-1.31-11.33-2.4-16.8l0.4-18.8-2-9.2c0-5.45,4.35-20.27,1.6-26.8-0.28-.67-8.77-5-10.8-7.2,0-10,3.45-19.63,5.6-28.4l2-18.8,8-28.4v-9.2c3.67-17.56,8.15-36.87,17.2-52.4,2.1-3.6,6.56-1.94,10.8-3.6l6.8-3.6,5.2-.4,12-9.6c3.59-1.54,8.11.77,10.8-2-0.1-2.65,1.76-6.14.8-9.6l-5.2-9.2c-4.75-11.5-7.14-27.6-4-42l1.2-8.8c3-5.61,12.09-14.67,18-17.2Z" transform="translate(-306 -35.27)"/></svg>